<?xml version="1.0" standalone="no"?><!DOCTYPE svg PUBLIC "-//W3C//DTD SVG 1.1//EN" "http://www.w3.org/Graphics/SVG/1.1/DTD/svg11.dtd"><svg t="1592409802308" class="icon" viewBox="0 0 1024 1024" version="1.1" xmlns="http://www.w3.org/2000/svg" p-id="3018" xmlns:xlink="http://www.w3.org/1999/xlink" width="200" height="200"><defs><style type="text/css"></style></defs><path d="M764.32 1016.77H280.8l39.58-145.89c11.33-41.78-5.09-85.79-41.82-112.14-109.42-78.53-174.75-205.75-174.75-340.32 0-114.81 45.61-221.9 128.41-301.53C315.08 37.2 423.87-4.01 539.34 0.31 762.01 9.01 942.2 197.59 940.99 420.7c-0.7 133.66-65.88 259.99-174.36 337.94-36.76 26.44-53.2 70.49-41.9 112.24l39.59 145.89z m-386.71-74.06h289.9l-14.22-52.46c-19.48-71.84 8.05-147.1 70.12-191.74 89.29-64.18 142.95-168.18 143.53-278.21 0.99-183.64-147.26-338.85-330.5-346-95.39-3.74-184.68 30.37-252.87 95.94C215.4 235.8 177.86 323.92 177.86 418.4c0 110.77 53.78 215.5 143.89 280.15 62.07 44.57 89.58 119.81 70.08 191.69l-14.22 52.47z" fill="#515151" p-id="3019"></path><path d="M520.39 604.91c-86.98 0-157.75-70.76-157.75-157.75 0-20.45 16.59-37.03 37.03-37.03s37.03 16.57 37.03 37.03c0 46.15 37.56 83.7 83.7 83.7s83.7-37.55 83.7-83.7c0-20.45 16.59-37.03 37.03-37.03s37.03 16.57 37.03 37.03c-0.02 86.99-70.8 157.75-157.77 157.75z" fill="#515151" p-id="3020"></path></svg>